<?xml version="1.0" standalone="no"?>
<!DOCTYPE svg PUBLIC "-//W3C//DTD SVG 20010904//EN"
 "http://www.w3.org/TR/2001/REC-SVG-20010904/DTD/svg10.dtd">
<svg version="1.0" xmlns="http://www.w3.org/2000/svg"
 width="720.000000pt" height="720.000000pt" viewBox="0 0 720.000000 720.000000"
 preserveAspectRatio="xMidYMid meet">

<g transform="translate(0.000000,720.000000) scale(0.100000,-0.100000)"
fill="#000000" stroke="none">
<path d="M1765 5574 c-140 -30 -214 -60 -329 -133 -296 -191 -482 -568 -404
-821 30 -96 102 -197 195 -271 32 -25 151 -103 265 -174 257 -159 327 -211
381 -283 78 -106 97 -156 97 -268 0 -127 -36 -209 -132 -300 -82 -79 -181
-125 -323 -150 -100 -18 -161 -18 -252 0 -130 25 -216 79 -282 177 -52 78 -71
146 -71 257 0 128 39 242 124 367 l28 40 -22 3 c-57 9 -189 -45 -253 -102
-125 -113 -150 -358 -57 -563 62 -136 207 -242 405 -295 67 -18 344 -18 405 0
25 7 70 21 100 30 199 59 390 213 464 374 107 232 58 479 -130 660 -81 78
-197 157 -379 258 -173 96 -292 194 -340 281 -28 50 -30 61 -30 159 0 80 5
117 20 155 91 234 264 414 490 507 30 12 143 25 189 22 81 -6 105 -15 130 -45
22 -26 26 -41 26 -94 0 -34 -7 -87 -16 -116 -19 -63 -91 -265 -105 -294 -25
-53 -58 -190 -59 -240 0 -74 58 -147 104 -129 17 6 156 279 156 305 0 8 4 19
8 25 8 9 28 71 57 173 21 78 20 252 -2 315 -25 69 -95 137 -163 159 -49 16
-237 23 -295 11z"/>
<path d="M4215 5557 c-48 -35 -83 -74 -155 -171 -60 -81 -154 -226 -173 -266
-4 -8 -17 -31 -29 -50 -170 -278 -404 -813 -492 -1125 -29 -103 -35 -128 -52
-221 -18 -100 -20 -103 -99 -123 -22 -6 -58 -11 -80 -11 -42 0 -115 17 -115
27 0 3 19 40 43 82 53 94 125 260 139 321 6 25 13 89 15 142 4 88 2 101 -22
152 -31 65 -66 90 -147 105 -99 18 -210 -29 -266 -111 -47 -70 -61 -107 -78
-200 -15 -82 -15 -95 0 -180 20 -110 70 -222 127 -283 21 -23 39 -48 39 -55 0
-21 -90 -118 -154 -166 -69 -52 -135 -84 -174 -84 -85 0 -133 130 -101 267 14
58 56 185 77 233 43 100 77 168 99 198 34 45 18 66 -45 59 -114 -13 -232 -155
-308 -372 -26 -72 -28 -93 -29 -211 0 -119 2 -134 25 -179 73 -143 238 -164
420 -56 66 40 182 144 237 214 l31 39 88 -12 c76 -10 99 -10 159 4 39 9 77 17
85 19 11 1 16 -12 21 -58 9 -94 46 -171 103 -219 l48 -41 102 0 c96 0 104 2
165 35 35 19 85 53 111 77 l49 44 18 -27 c93 -135 173 -175 355 -175 123 0
174 12 298 69 43 20 166 102 200 134 58 54 56 54 83 -6 45 -98 117 -145 223
-146 116 0 257 58 353 147 31 29 58 52 61 53 3 0 21 -33 41 -72 26 -54 46 -81
78 -103 40 -28 48 -30 141 -30 93 0 102 2 166 35 124 65 271 236 373 434 48
93 51 116 18 116 -19 0 -28 -10 -43 -42 -58 -134 -202 -333 -281 -390 -230
-166 -340 30 -252 447 10 44 21 60 98 135 87 84 162 169 225 252 36 48 196
288 196 294 0 3 11 22 24 43 28 44 145 274 176 346 42 98 60 144 75 190 40
122 48 165 48 265 1 95 -2 111 -27 162 -43 90 -94 92 -180 5 -120 -120 -346
-478 -477 -757 -17 -36 -48 -101 -69 -145 -21 -44 -66 -147 -100 -230 -33 -82
-65 -159 -70 -170 -5 -11 -23 -65 -41 -120 -18 -55 -35 -109 -40 -120 -26 -71
-69 -291 -69 -355 0 -65 -19 -102 -84 -165 -102 -99 -231 -139 -314 -96 -55
28 -72 69 -72 172 0 76 14 152 40 214 44 103 125 259 198 379 84 139 99 199
62 236 -40 40 -125 12 -194 -64 -69 -76 -167 -264 -217 -413 -18 -54 -35 -107
-40 -118 -9 -25 -37 -147 -44 -197 -4 -28 -19 -49 -70 -96 -113 -106 -218
-165 -349 -197 -60 -14 -80 -14 -139 -4 -85 15 -133 48 -167 115 -20 41 -24
64 -25 140 0 60 4 96 13 107 7 8 36 18 65 22 29 4 66 11 82 16 68 20 157 50
173 58 9 5 35 17 57 27 175 82 328 233 377 371 30 86 23 206 -14 255 -63 83
-212 88 -374 14 -178 -81 -373 -283 -491 -506 -63 -119 -93 -233 -93 -352 l0
-94 -37 -36 c-94 -91 -208 -112 -265 -49 -43 48 -51 97 -44 266 8 222 11 228
153 370 252 255 515 681 645 1050 42 117 48 140 63 224 19 110 -3 234 -53 294
-21 24 -71 21 -107 -6z m69 -262 c9 -36 -32 -205 -65 -267 -5 -10 -9 -22 -9
-27 0 -17 -157 -345 -180 -376 -4 -5 -22 -37 -40 -70 -78 -143 -277 -422 -360
-505 -28 -28 -41 -17 -28 23 5 17 13 46 18 62 9 32 54 157 69 190 5 11 19 45
31 75 135 331 398 803 503 901 29 26 54 24 61 -6z m2174 -10 c5 -36 -15 -133
-41 -200 -10 -27 -22 -61 -27 -75 -30 -95 -174 -375 -282 -549 -133 -214 -306
-439 -328 -426 -16 10 26 148 91 300 5 11 17 43 28 70 37 97 175 385 242 505
101 182 234 380 267 400 28 16 47 7 50 -25z m-1766 -952 c13 -12 18 -30 18
-70 0 -157 -170 -340 -446 -479 -136 -69 -161 -77 -144 -45 5 11 10 36 10 55
0 39 51 144 121 247 70 105 215 244 290 278 72 34 124 39 151 14z m-1589 -61
c17 -39 19 -59 14 -136 -6 -87 -11 -109 -45 -201 -33 -90 -117 -245 -133 -245
-5 0 -19 17 -32 38 -58 93 -89 260 -67 364 44 212 201 319 263 180z"/>
<path d="M5425 4916 c-61 -28 -87 -51 -109 -93 -20 -40 -20 -58 1 -94 12 -19
33 -34 65 -45 43 -14 53 -14 100 0 66 19 119 62 142 115 22 47 16 82 -19 117
-33 33 -110 33 -180 0z"/>
<path d="M513 2164 c-20 -9 -15 -42 7 -49 19 -6 20 -15 20 -129 0 -110 -2
-125 -20 -141 -49 -44 -17 -58 120 -51 52 2 103 5 112 5 9 1 30 13 47 27 27
22 31 32 31 75 0 42 -4 51 -30 71 -29 21 -29 22 -11 39 43 41 33 107 -21 135
-30 16 -230 30 -255 18z m212 -64 c41 -34 3 -90 -60 -90 -45 0 -55 10 -55 55
0 49 10 58 56 52 24 -2 51 -10 59 -17z m12 -148 c20 -13 26 -65 10 -86 -18
-24 -115 -36 -128 -15 -10 16 -12 93 -2 102 9 10 105 8 120 -1z"/>
<path d="M1405 2151 c-80 -37 -123 -113 -111 -198 12 -93 77 -151 177 -160
150 -14 249 101 210 243 -29 106 -169 165 -276 115z m161 -59 c13 -9 30 -37
40 -61 15 -38 15 -51 5 -90 -7 -25 -19 -54 -28 -63 -41 -46 -147 -46 -183 -1
-65 83 -37 203 55 235 28 9 84 -1 111 -20z"/>
<path d="M2158 2163 c-24 -6 -23 -40 2 -48 18 -6 20 -15 20 -117 0 -93 3 -116
20 -143 30 -48 80 -69 155 -63 116 10 145 52 145 212 0 96 2 105 20 111 28 9
26 43 -3 50 -12 3 -43 5 -67 3 -38 -3 -45 -7 -48 -26 -3 -17 2 -25 17 -29 19
-5 21 -13 21 -99 0 -59 -5 -107 -14 -129 -13 -29 -20 -34 -61 -41 -38 -5 -52
-3 -73 13 -32 24 -39 52 -41 160 -1 72 1 84 20 97 12 8 19 22 17 33 -3 15 -13
18 -58 19 -30 0 -63 -1 -72 -3z"/>
<path d="M2976 2154 c-23 -23 -22 -100 3 -113 23 -13 31 -5 31 31 0 37 37 57
75 40 l26 -12 -4 -120 c-2 -111 -4 -121 -25 -136 -50 -35 -17 -57 79 -52 46 3
54 6 57 24 2 14 -5 24 -22 32 -24 11 -25 13 -25 131 0 111 2 122 21 132 33 18
68 3 68 -29 0 -32 16 -53 36 -45 10 4 14 23 14 63 0 47 -3 60 -17 64 -10 2
-82 5 -160 5 -116 1 -144 -2 -157 -15z"/>
<path d="M3778 2163 c-26 -7 -23 -41 5 -45 21 -3 22 -7 25 -118 3 -134 -1
-156 -28 -163 -11 -3 -20 -12 -20 -20 0 -15 40 -27 95 -27 65 0 82 21 45 55
-18 16 -20 31 -20 141 0 114 1 123 20 129 24 8 27 40 4 49 -17 7 -99 6 -126
-1z"/>
<path d="M4483 2145 c-58 -29 -80 -58 -98 -126 -15 -56 -5 -104 33 -157 20
-28 93 -72 119 -72 5 0 23 -16 41 -35 53 -55 157 -75 157 -30 0 15 -6 19 -22
17 -23 -3 -83 23 -83 36 0 4 22 19 49 35 70 39 96 85 95 168 0 91 -25 129
-109 169 -56 27 -120 25 -182 -5z m178 -61 c41 -39 54 -95 34 -152 -21 -63
-54 -86 -123 -86 -47 0 -58 4 -78 27 -37 44 -50 99 -33 149 30 93 133 125 200
62z"/>
<path d="M5243 2160 c-30 -12 -29 -28 2 -42 24 -11 25 -14 25 -122 0 -91 3
-117 19 -142 38 -62 145 -83 227 -44 57 28 74 74 74 202 0 87 2 98 20 108 11
6 20 17 20 25 0 19 -33 27 -90 23 -38 -3 -45 -7 -48 -26 -3 -17 2 -25 18 -29
21 -6 22 -10 18 -115 -3 -106 -4 -111 -31 -134 -49 -42 -127 -28 -146 27 -6
17 -11 74 -11 125 0 85 2 93 21 99 14 5 19 14 17 28 -3 19 -10 22 -58 24 -30
1 -65 -2 -77 -7z"/>
<path d="M6077 2163 c-16 -15 -6 -43 18 -49 25 -6 25 -6 25 -129 0 -120 -1
-123 -25 -139 -31 -20 -32 -42 -2 -50 38 -10 277 -7 298 4 23 13 27 81 4 100
-18 15 -35 5 -35 -20 0 -11 -9 -24 -19 -30 -27 -14 -124 -13 -139 2 -18 18
-15 95 4 102 35 13 73 6 79 -15 11 -34 35 -3 35 46 0 49 -24 80 -35 45 -6 -18
-13 -21 -48 -18 -42 3 -42 3 -45 47 -4 53 5 61 75 61 63 0 83 -7 83 -30 0 -21
25 -44 40 -35 17 11 13 102 -6 109 -21 8 -299 8 -307 -1z"/>
<path d="M1027 1854 c-14 -14 -7 -53 11 -56 35 -8 53 3 50 31 -2 19 -9 27 -28
29 -14 2 -29 0 -33 -4z"/>
<path d="M1883 1848 c-22 -36 9 -68 47 -48 21 11 24 19 14 44 -7 19 -50 21
-61 4z"/>
<path d="M2714 1834 c-10 -39 30 -60 56 -29 18 22 3 55 -25 55 -18 0 -26 -7
-31 -26z"/>
<path d="M3497 1853 c-10 -10 -8 -51 3 -58 17 -10 60 7 60 24 0 31 -43 55 -63
34z"/>
<path d="M4122 1848 c-17 -17 -15 -36 7 -48 30 -15 53 -2 49 29 -3 29 -35 40
-56 19z"/>
<path d="M4975 1839 c-9 -28 13 -50 43 -42 18 4 22 12 20 32 -4 35 -53 43 -63
10z"/>
<path d="M5806 1844 c-15 -39 2 -58 42 -47 44 11 33 63 -13 63 -13 0 -26 -7
-29 -16z"/>
</g>
</svg>
